<svg id="visual" viewBox="0 0 960 540" width="960" height="540" xmlns="http://www.w3.org/2000/svg" xmlns:xlink="http://www.w3.org/1999/xlink" version="1.1"><rect x="0" y="0" width="960" height="540" fill="#002233"></rect><path d="M0 428L22.8 400.5C45.7 373 91.3 318 137 297.7C182.7 277.3 228.3 291.7 274 314C319.7 336.3 365.3 366.7 411.2 361C457 355.3 503 313.7 548.8 309.8C594.7 306 640.3 340 686 351.5C731.7 363 777.3 352 823 352.5C868.7 353 914.3 365 937.2 371L960 377L960 541L937.2 541C914.3 541 868.7 541 823 541C777.3 541 731.7 541 686 541C640.3 541 594.7 541 548.8 541C503 541 457 541 411.2 541C365.3 541 319.7 541 274 541C228.3 541 182.7 541 137 541C91.3 541 45.7 541 22.8 541L0 541Z" fill="#4fd14d" stroke-linecap="round" stroke-linejoin="miter"></path></svg>