<svg id="visual" viewBox="0 0 540 960" width="540" height="960" xmlns="http://www.w3.org/2000/svg" xmlns:xlink="http://www.w3.org/1999/xlink" version="1.1"><rect x="0" y="0" width="540" height="960" fill="#002233"></rect><path d="M0 544L22.5 570.5C45 597 90 650 135 636.7C180 623.3 225 543.7 270 506C315 468.3 360 472.7 405 509.2C450 545.7 495 614.3 517.5 648.7L540 683L540 961L517.5 961C495 961 450 961 405 961C360 961 315 961 270 961C225 961 180 961 135 961C90 961 45 961 22.5 961L0 961Z" fill="#4fd14d" stroke-linecap="round" stroke-linejoin="miter"></path></svg>